<?xml version="1.0" encoding="UTF-8"?>
<svg id="Layer_2" data-name="Layer 2" xmlns="http://www.w3.org/2000/svg" viewBox="0 0 3388.46 1198.54">
  <defs>
    <style>
      .cls-1 {
        fill: #cdde47;
      }

      .cls-1, .cls-2 {
        stroke-width: 0px;
      }

      .cls-2 {
        fill: #528540;
      }
    </style>
  </defs>
  <polygon class="cls-2" points="2449.12 329.86 2282.8 483.67 1759.78 0 1261.52 460.78 1159.01 365.98 715.84 775.49 582.64 652.31 0 1198.54 3388.46 1198.54 2449.12 329.86"/>
  <g>
    <polygon class="cls-1" points="715.84 775.49 373.44 1024.09 582.64 652.31 715.84 775.49"/>
    <polygon class="cls-1" points="1261.52 460.78 931.32 754.85 1159.01 365.98 1261.52 460.78"/>
    <polygon class="cls-1" points="2608.82 789.03 1862.29 443.69 1558.94 641.03 1575.33 170.57 1759.78 0 2282.8 483.67 2608.82 789.03"/>
    <polygon class="cls-1" points="2789.43 789.03 2352.54 419.18 2449.12 329.86 2766.07 622.97 2789.43 789.03"/>
  </g>
</svg>