<?xml version="1.0" encoding="UTF-8"?>
<svg id="Graphic_Elements" data-name="Graphic Elements" xmlns="http://www.w3.org/2000/svg" viewBox="0 0 1181.51 205.59">
  <defs>
    <style>
      .cls-1 {
        fill: #a2d6ff;
        stroke-width: 0px;
      }
    </style>
  </defs>
  <path class="cls-1" d="M281.37,85.41c-3.45,0-6.76.54-9.88,1.52-2.24-21.29-20.25-37.89-42.14-37.89-5.92,0-11.55,1.22-16.67,3.41.06-.97.15-1.93.15-2.92,0-26.82-21.74-48.56-48.56-48.56-21.64,0-39.96,14.17-46.23,33.73-3.63-1.39-7.55-2.18-11.67-2.18-13.99,0-25.9,8.78-30.61,21.12-4.9-2.91-10.6-4.62-16.71-4.62-18.1,0-32.78,14.68-32.78,32.78,0,4.36.87,8.52,2.42,12.33C11.96,100.3,0,116.34,0,135.21c0,24.18,19.6,43.78,43.78,43.78,13.3,0,25.2-5.95,33.23-15.32,10.43,8.88,23.94,14.26,38.71,14.26,7.19,0,14.08-1.27,20.47-3.6,9.53,8.85,22.28,14.27,36.31,14.27,19.33,0,36.26-10.27,45.63-25.66,5.05,3.18,11.01,5.05,17.42,5.05,13.88,0,25.72-8.64,30.5-20.83,4.57,2.42,9.78,3.81,15.32,3.81,18.1,0,32.78-14.67,32.78-32.78s-14.67-32.78-32.78-32.78Z"/>
  <path class="cls-1" d="M673.35,102.62c0-30.83-24.99-55.82-55.82-55.82-1.11,0-2.22.04-3.32.11-8.76-26.77-33.92-46.12-63.62-46.12-22.48,0-42.36,11.1-54.5,28.1-5.15-3.71-11.45-5.92-18.28-5.92-17.31,0-31.34,14.03-31.34,31.34,0,.06,0,.11,0,.17-28.9,2.11-51.69,26.21-51.69,55.65s24.99,55.82,55.82,55.82c10.23,0,19.82-2.77,28.06-7.57,4.66,26.82,28.03,47.22,56.18,47.22,19.79,0,37.22-10.08,47.45-25.38,4.8,2.99,10.45,4.74,16.52,4.74,16.16,0,29.45-12.23,31.15-27.93,24.84-5.66,43.38-27.86,43.38-54.41Z"/>
  <path class="cls-1" d="M1179.42,91.66c-9.14-23.12-31.26-39.49-57.18-39.62-8.77-.04-17.12,1.79-24.7,5.1C1091.64,24.76,1063.92.17,1030.48,0c-37.87-.19-68.72,31.02-68.9,69.69,0,1.05.02,2.09.06,3.12-.83-.06-1.65-.14-2.5-.14-22.05-.11-40,18.05-40.11,40.57-.11,22.51,17.68,40.85,39.72,40.96,2.02.01,3.99-.18,5.93-.47,2.15,19.53,18.3,34.76,38.02,34.85,13.45.07,25.3-6.94,32.23-17.58,5.35,3.94,11.89,6.29,18.99,6.33,11.24.06,21.18-5.67,27.14-14.44,10.84,9.72,25.02,15.66,40.58,15.74,16.49.08,31.28-6.37,42.43-17.04,1-1,2.78-2.72,3-3,6.66-8.34,7.33-16.92,12.45-33,2.55-8,2.55-26,.55-32"/>
</svg>