<?xml version="1.0" encoding="UTF-8"?>
<svg id="Graphic_Elements" data-name="Graphic Elements" xmlns="http://www.w3.org/2000/svg" viewBox="0 0 278.56 204.81">
  <defs>
    <style>
      .cls-1 {
        fill: #a2d6ff;
        stroke-width: 0px;
      }
    </style>
  </defs>
  <path class="cls-1" d="M278.56,101.84c0-30.83-24.99-55.82-55.82-55.82-1.11,0-2.22.04-3.32.11C210.67,19.35,185.5,0,155.8,0c-22.48,0-42.36,11.1-54.5,28.1-5.15-3.71-11.45-5.92-18.28-5.92-17.31,0-31.34,14.03-31.34,31.34,0,.06,0,.11,0,.17C22.79,55.81,0,79.91,0,109.35s24.99,55.82,55.82,55.82c10.23,0,19.82-2.77,28.06-7.57,4.66,26.82,28.03,47.22,56.18,47.22,19.79,0,37.22-10.08,47.45-25.38,4.8,2.99,10.45,4.74,16.52,4.74,16.16,0,29.45-12.23,31.15-27.93,24.84-5.66,43.38-27.86,43.38-54.41Z"/>
</svg>