<?xml version="1.0" encoding="UTF-8"?>
<svg id="Graphic_Elements" data-name="Graphic Elements" xmlns="http://www.w3.org/2000/svg" viewBox="0 0 314.15 187.61">
  <defs>
    <style>
      .cls-1 {
        fill: #a2d6ff;
        stroke-width: 0px;
      }
    </style>
  </defs>
  <path class="cls-1" d="M281.37,84.43c-3.45,0-6.76.54-9.88,1.52-2.24-21.29-20.25-37.89-42.14-37.89-5.92,0-11.55,1.22-16.67,3.41.06-.97.15-1.93.15-2.92,0-26.82-21.74-48.56-48.56-48.56-21.64,0-39.96,14.17-46.23,33.73-3.63-1.39-7.55-2.18-11.67-2.18-13.99,0-25.9,8.78-30.61,21.12-4.9-2.91-10.6-4.62-16.71-4.62-18.1,0-32.78,14.68-32.78,32.78,0,4.36.87,8.52,2.42,12.33C11.96,99.32,0,115.35,0,134.22c0,24.18,19.6,43.78,43.78,43.78,13.3,0,25.2-5.95,33.23-15.32,10.43,8.88,23.94,14.26,38.71,14.26,7.19,0,14.08-1.27,20.47-3.6,9.53,8.85,22.28,14.27,36.31,14.27,19.33,0,36.26-10.27,45.63-25.66,5.05,3.18,11.01,5.05,17.42,5.05,13.88,0,25.72-8.64,30.5-20.83,4.57,2.42,9.78,3.81,15.32,3.81,18.1,0,32.78-14.67,32.78-32.78s-14.67-32.78-32.78-32.78Z"/>
</svg>