<?xml version="1.0" encoding="UTF-8"?>
<svg id="Capa_1" data-name="Capa 1" xmlns="http://www.w3.org/2000/svg" version="1.1" viewBox="0 0 1080 1080">
  <defs>
    <style>
      .cls-1 {
        font-family: RATHER, RATHER;
        font-size: 126.1px;
        letter-spacing: .12em;
      }

      .cls-1, .cls-2 {
        fill: #fff;
      }

      .cls-2 {
        stroke-width: 0px;
      }
    </style>
  </defs>
  <g>
    <path class="cls-2" d="M148.9,654.29s154.05,56.94,197.35-59.93c0,0,13.77-37.42,0-69.41,0,0,35.05,18.9,54.09,149.71,0,0,2.38,16.08-2.92-30.15-7.67-66.94-32.8-155.34-109.83-187.01,0,0,87.12,77.91,13.23,160.81-8.03,9.01-18.35,15.43-29.78,19.29-19.39,6.54-56.26,15.14-122.15,16.7"/>
    <path class="cls-2" d="M285.12,414.66l14.75-7.1-21.8-14.13-3.48-25.75-20.18,16.36-25.56-4.65,9.33,24.25-12.32,22.87,25.94-1.38,17.95,18.78,4.28-16.03c29.48,13.79,146.63,79.13,146.63,248.03,0,0,17.24-171.79-135.55-261.27Z"/>
  </g>
  <text class="cls-1" transform="translate(458.91 583.87)"><tspan x="0" y="0">Fortis</tspan></text>
</svg>