<?xml version="1.0" encoding="UTF-8"?>
<svg xmlns="http://www.w3.org/2000/svg" version="1.1" viewBox="0 0 2696.39 758.33">
  <defs>
    <style>
      .cls-1 {
        fill-rule: evenodd;
      }

      .cls-1, .cls-2, .cls-3, .cls-4 {
        stroke-width: 0px;
      }

      .cls-1, .cls-5, .cls-4 {
        fill: #fff;
      }

      .cls-2, .cls-3 {
        fill: #1a938a;
      }

      .cls-6 {
        isolation: isolate;
      }

      .cls-3 {
        mix-blend-mode: multiply;
        opacity: .2;
      }

      .cls-5 {
        font-family: RATHER, RATHER;
        font-size: 127.6px;
        letter-spacing: .12em;
      }
    </style>
  </defs>
  <g class="cls-6">
    <g id="Capa_1" data-name="Capa 1">
      <polygon class="cls-2" points="1237.71 765.21 0 764.33 0 382.62 0 0 1237.71 0 1009.83 382.62 1237.71 765.21"/>
      <polygon class="cls-2" points="1584.5 757.46 1441.33 757.46 1237.71 378.73 1441.33 0 1584.5 0 1398.48 378.28 1584.5 757.46"/>
      <rect class="cls-3" y="378.28" width="2698.73" height="386.93"/>
      <g>
        <g>
          <path class="cls-4" d="M108.57,487.81s156.14,57.62,200.03-60.64c0,0,13.96-37.86,0-70.23,0,0,35.52,19.13,54.83,151.49,0,0,2.41,16.27-2.96-30.5-7.78-67.74-33.25-157.19-111.32-189.24,0,0,88.3,78.84,13.41,162.72-8.14,9.11-18.6,15.61-30.19,19.51-19.65,6.62-57.02,15.32-123.81,16.89"/>
          <path class="cls-4" d="M246.64,245.33l14.95-7.18-22.09-14.3-3.53-26.05-20.45,16.56-25.91-4.7,9.45,24.54-12.49,23.15,26.29-1.39,18.19,19.01,4.34-16.22c29.88,13.95,148.62,80.07,148.62,250.98,0,0,17.48-173.84-137.39-264.37Z"/>
        </g>
        <text class="cls-5" transform="translate(422.79 416.55)"><tspan x="0" y="0">Fortis</tspan></text>
      </g>
      <g id="Facebook">
        <ellipse class="cls-2" cx="1638.28" cy="377.03" rx="86.71" ry="86.57"/>
        <path class="cls-4" d="M1645.92,356.77v-8.2c0-4,2.67-4.93,4.54-4.93h11.52v-17.57l-15.87-.07c-17.61,0-21.62,13.11-21.62,21.49v9.27h-10.19v20.51h10.27v51.27h20.54v-51.27h15.25l.74-8.05,1.14-12.45h-16.33Z"/>
      </g>
      <g id="Youtube">
        <path class="cls-2" d="M2159.21,378.28c0,47.81-38.82,86.57-86.71,86.57s-86.72-38.76-86.72-86.57,38.83-86.57,86.72-86.57,86.71,38.76,86.71,86.57Z"/>
        <path class="cls-1" d="M2121.14,357.64s-1.02-7.14-3.98-10.25c-3.76-4.08-8.01-4.13-9.89-4.4-13.87-1.02-34.69-1.02-34.69-1.02h-.11s-20.76,0-34.63,1.02c-1.99.27-6.18.32-9.94,4.4-2.96,3.11-3.98,10.25-3.98,10.25,0,0-1.03,8.37-1.03,16.64v7.89c0,8.38,1.03,16.64,1.03,16.64,0,0,1.02,7.14,3.98,10.31,3.76,4.13,8.71,3.97,10.97,4.4,7.9.81,33.72,1.07,33.72,1.07,0,0,20.81-.11,34.69-1.07,1.88-.27,6.13-.27,9.89-4.4,2.96-3.17,3.98-10.31,3.98-10.31,0,0,.97-8.27.97-16.64v-7.89c0-8.27-.97-16.64-.97-16.64h0ZM2089.09,377.18l-26.84,14.44v-28.99l12.16,6.6,14.68,7.95Z"/>
      </g>
      <g id="X">
        <g id="Youtube-2" data-name="Youtube">
          <path class="cls-2" d="M2587.39,377.03c0,47.81-38.82,86.57-86.71,86.57s-86.72-38.76-86.72-86.57,38.83-86.57,86.72-86.57,86.71,38.76,86.71,86.57Z"/>
        </g>
        <path id="_Trazado_" data-name="&amp;lt;Trazado&amp;gt;" class="cls-4" d="M2509.4,369.86l34.15-39.63h-8.09l-29.65,34.41-23.69-34.41h-27.32l35.82,52.04-35.82,41.56h8.09l31.32-36.34,25.01,36.34h27.32l-37.14-53.97h0ZM2498.32,382.73l-3.63-5.18-28.87-41.23h12.43l23.3,33.28,3.63,5.18,30.29,43.25h-12.43l-24.72-35.3h0Z"/>
      </g>
      <g id="Tik_tok" data-name="Tik tok">
        <g id="Youtube-3" data-name="Youtube">
          <path class="cls-2" d="M2377.17,378.28c0,47.81-38.82,86.57-86.71,86.57s-86.72-38.76-86.72-86.57,38.83-86.57,86.72-86.57,86.71,38.76,86.71,86.57Z"/>
        </g>
        <path class="cls-4" d="M2323.45,349.32c-.68-.35-1.35-.74-2-1.16-1.88-1.24-3.6-2.7-5.13-4.35-3.82-4.37-5.25-8.8-5.78-11.9h.02c-.44-2.57-.26-4.24-.23-4.24h-17.41v67.22c0,.9,0,1.79-.04,2.68,0,.11-.01.21-.02.33,0,.05,0,.1-.01.15v.04c-.37,4.9-3.16,9.29-7.44,11.72-2.2,1.25-4.68,1.9-7.2,1.9-8.11,0-14.69-6.6-14.69-14.76s6.57-14.76,14.69-14.76c1.54,0,3.06.24,4.52.71l.02-17.7c-8.96-1.16-18,1.48-24.92,7.28-3,2.6-5.52,5.71-7.46,9.18-.73,1.27-3.51,6.35-3.84,14.6-.21,4.68,1.2,9.53,1.87,11.54v.04c.42,1.18,2.06,5.21,4.73,8.61,2.15,2.72,4.69,5.12,7.54,7.1v-.04l.04.04c8.43,5.72,17.78,5.34,17.78,5.34,1.62-.07,7.04,0,13.19-2.91,6.83-3.23,10.71-8.04,10.71-8.04,2.48-2.87,4.46-6.15,5.84-9.68,1.58-4.13,2.1-9.09,2.1-11.08v-35.66c.21.13,3.02,1.98,3.02,1.98,0,0,4.05,2.59,10.38,4.28,4.54,1.2,10.65,1.45,10.65,1.45v-17.26c-2.14.23-6.49-.44-10.94-2.66Z"/>
      </g>
      <g id="Instagram">
        <g id="Youtube-4" data-name="Youtube">
          <path class="cls-2" d="M1943.41,377.27c0,47.81-38.82,86.57-86.71,86.57s-86.72-38.76-86.72-86.57,38.83-86.57,86.72-86.57,86.71,38.76,86.71,86.57Z"/>
        </g>
        <g>
          <path class="cls-4" d="M1857.99,330.33c15.64,0,17.5.06,23.67.34,5.71.26,8.81,1.21,10.88,2.01,2.54.94,4.85,2.43,6.74,4.38,1.95,1.89,3.44,4.18,4.38,6.73.8,2.06,1.76,5.16,2.02,10.86.28,6.17.34,8.02.34,23.63s-.06,17.47-.34,23.63c-.26,5.7-1.22,8.8-2.02,10.86-1.97,5.1-6.01,9.13-11.12,11.1-2.06.8-5.17,1.75-10.88,2.01-6.18.28-8.03.34-23.67.34s-17.5-.06-23.67-.34c-5.71-.26-8.81-1.21-10.88-2.01-2.54-.94-4.85-2.43-6.74-4.38-1.95-1.89-3.44-4.18-4.38-6.73-.8-2.06-1.76-5.16-2.02-10.86-.28-6.17-.34-8.02-.34-23.63s.06-17.47.34-23.63c.26-5.7,1.21-8.8,2.02-10.86.94-2.54,2.44-4.84,4.38-6.73,1.89-1.94,4.19-3.44,6.74-4.38,2.06-.8,5.17-1.75,10.88-2.01,6.18-.28,8.03-.34,23.67-.34M1857.99,319.79c-15.91,0-17.91.07-24.15.35-6.24.28-10.49,1.27-14.22,2.72-3.91,1.47-7.45,3.77-10.38,6.75-2.98,2.92-5.29,6.46-6.76,10.36-1.45,3.72-2.44,7.97-2.72,14.2-.29,6.24-.35,8.23-.35,24.11s.07,17.88.35,24.11c.28,6.23,1.27,10.48,2.72,14.2,1.47,3.9,3.78,7.44,6.76,10.36,2.93,2.98,6.47,5.28,10.38,6.75,3.73,1.45,7.99,2.43,14.22,2.72,6.25.28,8.24.35,24.15.35s17.91-.07,24.15-.35c6.24-.28,10.49-1.27,14.22-2.72,7.87-3.04,14.09-9.25,17.13-17.11,1.45-3.72,2.44-7.97,2.72-14.2.29-6.24.35-8.23.35-24.11s-.07-17.88-.35-24.11c-.28-6.23-1.27-10.48-2.72-14.2-1.47-3.9-3.78-7.44-6.76-10.36-2.93-2.98-6.47-5.28-10.38-6.75-3.73-1.44-7.99-2.43-14.22-2.72-6.25-.29-8.24-.35-24.15-.35h0Z"/>
          <path class="cls-4" d="M1857.99,348.24c-16.62,0-30.08,13.45-30.08,30.03s13.47,30.03,30.08,30.03,30.08-13.45,30.08-30.03h0c0-16.59-13.47-30.03-30.08-30.03ZM1857.99,397.78c-10.79,0-19.53-8.73-19.53-19.5,0-10.77,8.74-19.5,19.53-19.5,10.79,0,19.53,8.73,19.53,19.5,0,10.77-8.74,19.5-19.53,19.5Z"/>
          <path class="cls-4" d="M1889.27,340.04c3.88,0,7.03,3.14,7.03,7.02s-3.15,7.02-7.03,7.02-7.03-3.14-7.03-7.02,3.15-7.02,7.03-7.02Z"/>
        </g>
      </g>
      <g>
        <path class="cls-2" d="M1664.69,734.25v-20.54h9.35c2.23,0,4.2.42,5.91,1.28,1.71.85,3.04,2.04,4,3.58.96,1.54,1.44,3.34,1.44,5.41s-.48,3.88-1.44,5.41c-.96,1.54-2.29,2.73-4,3.58s-3.67,1.28-5.91,1.28h-9.35ZM1669.48,730.38h4.32c1.37,0,2.56-.26,3.57-.78,1.01-.52,1.79-1.26,2.35-2.23.56-.97.84-2.1.84-3.39s-.28-2.45-.84-3.4c-.56-.96-1.34-1.7-2.35-2.21-1.01-.52-2.2-.78-3.57-.78h-4.32v12.79Z"/>
        <path class="cls-2" d="M1696.49,734.49c-1.8,0-3.38-.35-4.73-1.06-1.35-.7-2.4-1.67-3.14-2.89-.75-1.22-1.12-2.62-1.12-4.18s.36-2.96,1.07-4.2c.71-1.23,1.71-2.2,3-2.89,1.28-.69,2.73-1.04,4.33-1.04s2.94.33,4.19,1c1.24.67,2.23,1.6,2.95,2.82s1.09,2.67,1.09,4.37c0,.18-.01.38-.03.6-.02.22-.04.44-.06.63h-12.84v-2.67h10.43l-1.79.79c.02-.82-.14-1.54-.47-2.14-.33-.61-.79-1.08-1.38-1.42-.59-.34-1.27-.51-2.06-.51s-1.47.17-2.07.51c-.6.34-1.06.82-1.4,1.44s-.5,1.35-.5,2.19v.7c0,.88.2,1.64.59,2.29.39.65.93,1.14,1.62,1.48.69.34,1.51.51,2.47.51.82,0,1.55-.13,2.19-.38.64-.25,1.22-.64,1.75-1.14l2.44,2.64c-.73.82-1.64,1.45-2.73,1.89-1.1.44-2.36.66-3.79.66Z"/>
        <path class="cls-2" d="M1707.18,734.25v-15.79h4.38v4.49l-.62-1.32c.47-1.12,1.22-1.96,2.26-2.54,1.04-.58,2.3-.87,3.79-.87v4.25c-.18-.04-.35-.07-.51-.09-.17-.02-.33-.03-.48-.03-1.29,0-2.32.36-3.09,1.09-.76.72-1.15,1.84-1.15,3.34v7.45h-4.58Z"/>
        <path class="cls-2" d="M1727.7,734.49c-1.8,0-3.38-.35-4.73-1.06-1.35-.7-2.4-1.67-3.14-2.89-.75-1.22-1.12-2.62-1.12-4.18s.36-2.96,1.07-4.2c.71-1.23,1.71-2.2,3-2.89,1.28-.69,2.73-1.04,4.33-1.04s2.94.33,4.19,1c1.24.67,2.23,1.6,2.95,2.82s1.09,2.67,1.09,4.37c0,.18-.01.38-.03.6-.02.22-.04.44-.06.63h-12.84v-2.67h10.43l-1.79.79c.02-.82-.14-1.54-.47-2.14-.33-.61-.79-1.08-1.38-1.42-.59-.34-1.27-.51-2.06-.51s-1.47.17-2.07.51c-.6.34-1.06.82-1.4,1.44s-.5,1.35-.5,2.19v.7c0,.88.2,1.64.59,2.29.39.65.93,1.14,1.62,1.48.69.34,1.51.51,2.47.51.82,0,1.55-.13,2.19-.38.64-.25,1.22-.64,1.75-1.14l2.44,2.64c-.73.82-1.64,1.45-2.73,1.89-1.1.44-2.36.66-3.79.66Z"/>
        <path class="cls-2" d="M1746.04,734.49c-1.71,0-3.22-.35-4.54-1.04s-2.36-1.66-3.12-2.89c-.75-1.23-1.13-2.63-1.13-4.2s.38-2.98,1.13-4.2c.75-1.21,1.79-2.17,3.12-2.88s2.84-1.06,4.54-1.06,3.12.35,4.36,1.04c1.24.7,2.14,1.68,2.69,2.95l-3.53,1.94c-.43-.74-.95-1.29-1.56-1.63-.61-.34-1.27-.51-2-.51-.76,0-1.46.17-2.09.51-.63.34-1.13.84-1.5,1.48s-.56,1.43-.56,2.35.19,1.71.56,2.36c.37.66.87,1.15,1.5,1.5.63.34,1.32.51,2.09.51.72,0,1.39-.17,2-.51.61-.34,1.13-.9,1.56-1.66l3.53,1.94c-.55,1.25-1.45,2.23-2.69,2.93s-2.7,1.06-4.36,1.06Z"/>
        <path class="cls-2" d="M1765.38,718.23c1.25,0,2.38.25,3.37.75s1.77,1.26,2.34,2.29c.57,1.03.85,2.34.85,3.95v9.04h-4.58v-8.33c0-1.27-.28-2.21-.84-2.82-.56-.61-1.35-.91-2.37-.91-.72,0-1.38.16-1.95.47-.58.31-1.03.77-1.35,1.38-.32.61-.49,1.41-.49,2.41v7.8h-4.58v-21.77h4.58v10.36l-1.03-1.32c.57-1.06,1.38-1.87,2.44-2.44,1.06-.57,2.26-.85,3.61-.85Z"/>
        <path class="cls-2" d="M1783.57,734.49c-1.67,0-3.15-.35-4.45-1.06-1.3-.7-2.33-1.67-3.07-2.89-.75-1.22-1.12-2.62-1.12-4.18s.37-2.99,1.12-4.21c.74-1.22,1.77-2.18,3.07-2.88,1.3-.69,2.79-1.04,4.45-1.04s3.18.35,4.5,1.04c1.31.7,2.34,1.65,3.09,2.88.75,1.22,1.12,2.63,1.12,4.21s-.37,2.98-1.12,4.2c-.74,1.21-1.77,2.17-3.09,2.88s-2.81,1.06-4.5,1.06ZM1783.57,730.73c.78,0,1.47-.17,2.07-.51.6-.34,1.08-.85,1.44-1.51.36-.67.54-1.45.54-2.35s-.18-1.7-.54-2.35c-.36-.65-.84-1.14-1.44-1.48-.6-.34-1.28-.51-2.04-.51s-1.45.17-2.06.51c-.61.34-1.09.84-1.46,1.48s-.54,1.43-.54,2.35.18,1.68.54,2.35.85,1.17,1.46,1.51c.61.34,1.28.51,2.03.51Z"/>
        <path class="cls-2" d="M1800.65,734.49c-1.35,0-2.64-.16-3.88-.48-1.23-.32-2.22-.73-2.97-1.22l1.5-3.26c.74.43,1.61.79,2.6,1.07.99.28,1.96.43,2.92.43,1.06,0,1.81-.13,2.25-.38.44-.25.66-.61.66-1.06,0-.37-.17-.65-.51-.84-.34-.19-.79-.33-1.35-.42-.56-.1-1.18-.2-1.87-.29-.69-.1-1.37-.23-2.04-.41-.68-.18-1.3-.43-1.88-.75-.58-.32-1.04-.77-1.38-1.33s-.51-1.3-.51-2.2c0-1,.29-1.88.88-2.66.59-.77,1.42-1.37,2.5-1.8s2.38-.65,3.91-.65c1.1,0,2.2.12,3.31.37,1.11.25,2.04.58,2.81,1.01l-1.56,3.26c-.75-.43-1.5-.73-2.28-.91-.77-.18-1.51-.26-2.22-.26-1.06,0-1.82.14-2.29.41-.47.27-.71.63-.71,1.06,0,.39.18.69.53.9s.81.36,1.38.46c.57.1,1.19.2,1.88.29.69.1,1.36.23,2.03.41.67.18,1.29.42,1.87.75.58.32,1.04.77,1.38,1.33s.51,1.3.51,2.2c0,.96-.29,1.82-.88,2.57s-1.44,1.34-2.54,1.77c-1.11.43-2.45.65-4.04.65Z"/>
        <path class="cls-2" d="M1826.04,734.49c-1.49,0-2.83-.34-4.03-1.01s-2.14-1.62-2.82-2.83c-.69-1.21-1.03-2.64-1.03-4.28s.34-3.07,1.03-4.28c.69-1.21,1.63-2.16,2.82-2.83s2.54-1.01,4.03-1.01c1.33,0,2.5.29,3.5.88,1,.59,1.77,1.48,2.32,2.67.55,1.19.82,2.72.82,4.58s-.26,3.36-.79,4.58c-.53,1.21-1.29,2.11-2.28,2.68-.99.58-2.18.87-3.57.87ZM1826.8,730.73c.76,0,1.45-.17,2.06-.51.61-.34,1.09-.85,1.46-1.51s.54-1.45.54-2.35-.18-1.7-.54-2.35-.85-1.14-1.46-1.48c-.61-.34-1.29-.51-2.06-.51s-1.42.17-2.03.51c-.61.34-1.09.84-1.46,1.48s-.54,1.43-.54,2.35.18,1.68.54,2.35.85,1.17,1.46,1.51c.61.34,1.28.51,2.03.51ZM1830.98,734.25v-3.23l.09-4.7-.29-4.67v-9.18h4.58v21.77h-4.38Z"/>
        <path class="cls-2" d="M1847.44,734.49c-1.8,0-3.38-.35-4.73-1.06-1.35-.7-2.4-1.67-3.14-2.89-.75-1.22-1.12-2.62-1.12-4.18s.36-2.96,1.07-4.2c.71-1.23,1.71-2.2,3-2.89,1.28-.69,2.73-1.04,4.33-1.04s2.94.33,4.19,1c1.24.67,2.23,1.6,2.95,2.82s1.09,2.67,1.09,4.37c0,.18-.01.38-.03.6-.02.22-.04.44-.06.63h-12.84v-2.67h10.43l-1.79.79c.02-.82-.14-1.54-.47-2.14-.33-.61-.79-1.08-1.38-1.42-.59-.34-1.27-.51-2.06-.51s-1.47.17-2.07.51c-.6.34-1.06.82-1.4,1.44s-.5,1.35-.5,2.19v.7c0,.88.2,1.64.59,2.29.39.65.93,1.14,1.62,1.48.69.34,1.51.51,2.47.51.82,0,1.55-.13,2.19-.38.64-.25,1.22-.64,1.75-1.14l2.44,2.64c-.73.82-1.64,1.45-2.73,1.89-1.1.44-2.36.66-3.79.66Z"/>
        <path class="cls-2" d="M1871.33,734.49c-1.21,0-2.26-.21-3.14-.63-.88-.42-1.56-.99-2.04-1.72-.48-.72-.72-1.54-.72-2.44s.23-1.74.69-2.45c.46-.71,1.19-1.27,2.19-1.66,1-.39,2.31-.59,3.94-.59h4.17v2.64h-3.7c-1.08,0-1.82.18-2.22.53-.4.35-.6.79-.6,1.32,0,.59.23,1.05.69,1.39.46.34,1.08.51,1.87.51s1.48-.18,2.1-.53c.62-.35,1.05-.89,1.31-1.61l.71,2.14c-.33.98-.94,1.74-1.82,2.27s-2.02.81-3.41.81ZM1876.15,734.25v-3.08l-.29-.67v-5.52c0-.98-.3-1.74-.9-2.29s-1.51-.82-2.75-.82c-.84,0-1.67.13-2.48.4-.81.26-1.51.62-2.1,1.07l-1.62-3.2c.86-.63,1.9-1.1,3.12-1.42,1.21-.32,2.45-.48,3.7-.48,2.41,0,4.28.57,5.61,1.7,1.33,1.13,2,2.91,2,5.31v9.01h-4.29Z"/>
        <path class="cls-2" d="M1891.26,734.49c-1.33,0-2.51-.25-3.53-.76-1.02-.51-1.81-1.29-2.38-2.35-.57-1.06-.85-2.39-.85-3.99v-8.92h4.58v8.22c0,1.33.28,2.3.84,2.92.56.62,1.35.92,2.37.92.71,0,1.33-.16,1.88-.47.55-.31.99-.78,1.31-1.41s.48-1.41.48-2.35v-7.83h4.56v15.79h-4.35v-4.37l.79,1.29c-.55,1.1-1.33,1.92-2.35,2.48-1.02.56-2.14.84-3.35.84Z"/>
        <path class="cls-2" d="M1902.9,722.34v-3.52h10.96v3.52h-10.96ZM1911.24,734.49c-1.86,0-3.31-.47-4.35-1.42-1.04-.95-1.56-2.36-1.56-4.24v-13.85h4.61v13.76c0,.67.17,1.18.51,1.56.34.37.81.56,1.4.56.74,0,1.37-.2,1.88-.59l1.21,3.23c-.45.33-1,.58-1.66.75-.66.17-1.34.25-2.04.25Z"/>
        <path class="cls-2" d="M1925.06,734.49c-1.67,0-3.15-.35-4.45-1.06-1.3-.7-2.33-1.67-3.07-2.89-.75-1.22-1.12-2.62-1.12-4.18s.37-2.99,1.12-4.21c.74-1.22,1.77-2.18,3.07-2.88,1.3-.69,2.79-1.04,4.45-1.04s3.18.35,4.5,1.04c1.31.7,2.34,1.65,3.09,2.88.75,1.22,1.12,2.63,1.12,4.21s-.37,2.98-1.12,4.2c-.74,1.21-1.77,2.17-3.09,2.88s-2.81,1.06-4.5,1.06ZM1925.06,730.73c.78,0,1.47-.17,2.07-.51.6-.34,1.08-.85,1.44-1.51.36-.67.54-1.45.54-2.35s-.18-1.7-.54-2.35c-.36-.65-.84-1.14-1.44-1.48-.6-.34-1.28-.51-2.04-.51s-1.45.17-2.06.51c-.61.34-1.09.84-1.46,1.48s-.54,1.43-.54,2.35.18,1.68.54,2.35.85,1.17,1.46,1.51c.61.34,1.28.51,2.03.51Z"/>
        <path class="cls-2" d="M1936.81,734.25v-15.79h4.38v4.49l-.62-1.32c.47-1.12,1.22-1.96,2.26-2.54,1.04-.58,2.3-.87,3.79-.87v4.25c-.18-.04-.35-.07-.51-.09-.17-.02-.33-.03-.48-.03-1.29,0-2.32.36-3.09,1.09-.76.72-1.15,1.84-1.15,3.34v7.45h-4.58Z"/>
        <path class="cls-2" d="M1967.17,734.34c-1.47,0-2.83-.26-4.09-.79s-2.35-1.27-3.29-2.22c-.94-.95-1.67-2.05-2.19-3.3-.52-1.25-.78-2.6-.78-4.05s.26-2.8.79-4.05c.53-1.25,1.26-2.35,2.21-3.3.94-.95,2.04-1.69,3.31-2.21,1.26-.53,2.63-.79,4.1-.79s2.84.26,4.1.78,2.36,1.25,3.29,2.19c.93.94,1.66,2.03,2.17,3.27.52,1.24.78,2.6.78,4.06s-.26,2.83-.79,4.09-1.27,2.37-2.22,3.32c-.95.95-2.05,1.69-3.31,2.22s-2.62.79-4.08.79ZM1967.17,732.43c1.19,0,2.3-.22,3.32-.66,1.02-.44,1.91-1.04,2.66-1.8s1.34-1.66,1.76-2.7c.42-1.04.63-2.15.63-3.34s-.21-2.3-.62-3.33c-.41-1.03-.98-1.92-1.72-2.67-.73-.75-1.61-1.34-2.62-1.76-1.01-.42-2.13-.63-3.37-.63s-2.31.22-3.35.65c-1.04.43-1.93,1.03-2.67,1.8-.75.77-1.32,1.67-1.73,2.7-.41,1.03-.62,2.13-.62,3.3s.21,2.28.62,3.32c.41,1.04.99,1.94,1.73,2.7.74.76,1.63,1.36,2.66,1.79,1.03.43,2.13.65,3.31.65ZM1967.56,729.91c-1.2,0-2.27-.25-3.22-.75s-1.69-1.2-2.23-2.1-.81-1.93-.81-3.08.27-2.18.81-3.08,1.28-1.6,2.23-2.1c.95-.5,2.02-.75,3.22-.75s2.2.25,3.07.73c.87.49,1.52,1.17,1.95,2.05l-2.64,1.55c-.28-.49-.62-.84-1.03-1.06-.41-.22-.87-.32-1.38-.32s-.98.12-1.4.35c-.42.23-.76.58-1.01,1.03-.25.45-.38.98-.38,1.58s.13,1.13.38,1.58c.25.45.59.79,1.01,1.03s.89.35,1.4.35.97-.11,1.38-.32c.41-.21.75-.57,1.03-1.06l2.64,1.53c-.43.86-1.08,1.54-1.95,2.05-.87.51-1.9.76-3.07.76Z"/>
        <path class="cls-2" d="M1994.3,734.25h-4.79v-20.54h15.55v3.81h-10.76v16.72ZM1993.92,722.95h9.88v3.81h-9.88v-3.81Z"/>
        <path class="cls-2" d="M2015.46,734.49c-1.67,0-3.15-.35-4.45-1.06-1.3-.7-2.33-1.67-3.07-2.89-.75-1.22-1.12-2.62-1.12-4.18s.37-2.99,1.12-4.21c.74-1.22,1.77-2.18,3.07-2.88,1.3-.69,2.79-1.04,4.45-1.04s3.18.35,4.5,1.04c1.31.7,2.34,1.65,3.09,2.88.75,1.22,1.12,2.63,1.12,4.21s-.37,2.98-1.12,4.2c-.74,1.21-1.77,2.17-3.09,2.88s-2.81,1.06-4.5,1.06ZM2015.46,730.73c.78,0,1.47-.17,2.07-.51.6-.34,1.08-.85,1.44-1.51.36-.67.54-1.45.54-2.35s-.18-1.7-.54-2.35c-.36-.65-.84-1.14-1.44-1.48-.6-.34-1.28-.51-2.04-.51s-1.45.17-2.06.51c-.61.34-1.09.84-1.46,1.48s-.54,1.43-.54,2.35.18,1.68.54,2.35.85,1.17,1.46,1.51c.61.34,1.28.51,2.03.51Z"/>
        <path class="cls-2" d="M2027.22,734.25v-15.79h4.38v4.49l-.62-1.32c.47-1.12,1.22-1.96,2.26-2.54,1.04-.58,2.3-.87,3.79-.87v4.25c-.18-.04-.35-.07-.51-.09-.17-.02-.33-.03-.48-.03-1.29,0-2.32.36-3.09,1.09-.76.72-1.15,1.84-1.15,3.34v7.45h-4.58Z"/>
        <path class="cls-2" d="M2038,722.34v-3.52h10.96v3.52h-10.96ZM2046.35,734.49c-1.86,0-3.31-.47-4.35-1.42-1.04-.95-1.56-2.36-1.56-4.24v-13.85h4.61v13.76c0,.67.17,1.18.51,1.56.34.37.81.56,1.4.56.74,0,1.37-.2,1.88-.59l1.21,3.23c-.45.33-1,.58-1.66.75-.66.17-1.34.25-2.04.25Z"/>
        <path class="cls-2" d="M2054.96,716.26c-.86,0-1.56-.25-2.09-.73-.53-.49-.79-1.09-.79-1.82s.26-1.33.79-1.82c.53-.49,1.22-.73,2.09-.73s1.53.23,2.07.69c.54.46.81,1.05.81,1.77,0,.76-.26,1.39-.79,1.89-.53.5-1.22.75-2.09.75ZM2052.67,734.25v-15.79h4.58v15.79h-4.58Z"/>
        <path class="cls-2" d="M2066.84,734.49c-1.35,0-2.64-.16-3.88-.48-1.23-.32-2.22-.73-2.97-1.22l1.5-3.26c.74.43,1.61.79,2.6,1.07.99.28,1.96.43,2.92.43,1.06,0,1.81-.13,2.25-.38.44-.25.66-.61.66-1.06,0-.37-.17-.65-.51-.84-.34-.19-.79-.33-1.35-.42-.56-.1-1.18-.2-1.87-.29-.69-.1-1.37-.23-2.04-.41-.68-.18-1.3-.43-1.88-.75-.58-.32-1.04-.77-1.38-1.33s-.51-1.3-.51-2.2c0-1,.29-1.88.88-2.66.59-.77,1.42-1.37,2.5-1.8s2.38-.65,3.91-.65c1.1,0,2.2.12,3.31.37,1.11.25,2.04.58,2.81,1.01l-1.56,3.26c-.75-.43-1.5-.73-2.28-.91-.77-.18-1.51-.26-2.22-.26-1.06,0-1.82.14-2.29.41-.47.27-.71.63-.71,1.06,0,.39.18.69.53.9s.81.36,1.38.46c.57.1,1.19.2,1.88.29.69.1,1.36.23,2.03.41.67.18,1.29.42,1.87.75.58.32,1.04.77,1.38,1.33s.51,1.3.51,2.2c0,.96-.29,1.82-.88,2.57s-1.44,1.34-2.54,1.77c-1.11.43-2.45.65-4.04.65Z"/>
        <path class="cls-2" d="M2078.86,734.49c-.78,0-1.46-.27-2.01-.81s-.84-1.22-.84-2.04.28-1.56.84-2.08c.56-.53,1.23-.79,2.01-.79s1.48.26,2.03.79c.55.53.82,1.22.82,2.08s-.27,1.5-.82,2.04-1.22.81-2.03.81Z"/>
        <path class="cls-2" d="M2097.73,734.25v-16.67h-6.58v-3.87h17.93v3.87h-6.58v16.67h-4.76Z"/>
        <path class="cls-2" d="M2118.8,734.49c-1.67,0-3.15-.35-4.45-1.06-1.3-.7-2.33-1.67-3.07-2.89-.75-1.22-1.12-2.62-1.12-4.18s.37-2.99,1.12-4.21c.74-1.22,1.77-2.18,3.07-2.88,1.3-.69,2.79-1.04,4.45-1.04s3.18.35,4.5,1.04c1.31.7,2.34,1.65,3.09,2.88.75,1.22,1.12,2.63,1.12,4.21s-.37,2.98-1.12,4.2c-.74,1.21-1.77,2.17-3.09,2.88s-2.81,1.06-4.5,1.06ZM2118.8,730.73c.78,0,1.47-.17,2.07-.51.6-.34,1.08-.85,1.44-1.51.36-.67.54-1.45.54-2.35s-.18-1.7-.54-2.35c-.36-.65-.84-1.14-1.44-1.48-.6-.34-1.28-.51-2.04-.51s-1.45.17-2.06.51c-.61.34-1.09.84-1.46,1.48s-.54,1.43-.54,2.35.18,1.68.54,2.35.85,1.17,1.46,1.51c.61.34,1.28.51,2.03.51Z"/>
        <path class="cls-2" d="M2137.34,734.49c-1.49,0-2.83-.34-4.03-1.01s-2.14-1.62-2.82-2.83c-.69-1.21-1.03-2.64-1.03-4.28s.34-3.07,1.03-4.28c.69-1.21,1.63-2.16,2.82-2.83s2.54-1.01,4.03-1.01c1.33,0,2.5.29,3.5.88,1,.59,1.77,1.48,2.32,2.67.55,1.19.82,2.72.82,4.58s-.26,3.36-.79,4.58c-.53,1.21-1.29,2.11-2.28,2.68-.99.58-2.18.87-3.57.87ZM2138.11,730.73c.76,0,1.45-.17,2.06-.51.61-.34,1.09-.85,1.46-1.51s.54-1.45.54-2.35-.18-1.7-.54-2.35-.85-1.14-1.46-1.48c-.61-.34-1.29-.51-2.06-.51s-1.42.17-2.03.51c-.61.34-1.09.84-1.46,1.48s-.54,1.43-.54,2.35.18,1.68.54,2.35.85,1.17,1.46,1.51c.61.34,1.28.51,2.03.51ZM2142.28,734.25v-3.23l.09-4.7-.29-4.67v-9.18h4.58v21.77h-4.38Z"/>
        <path class="cls-2" d="M2158.39,734.49c-1.67,0-3.15-.35-4.45-1.06-1.3-.7-2.33-1.67-3.07-2.89-.75-1.22-1.12-2.62-1.12-4.18s.37-2.99,1.12-4.21c.74-1.22,1.77-2.18,3.07-2.88,1.3-.69,2.79-1.04,4.45-1.04s3.18.35,4.5,1.04c1.31.7,2.34,1.65,3.09,2.88.75,1.22,1.12,2.63,1.12,4.21s-.37,2.98-1.12,4.2c-.74,1.21-1.77,2.17-3.09,2.88s-2.81,1.06-4.5,1.06ZM2158.39,730.73c.78,0,1.47-.17,2.07-.51.6-.34,1.08-.85,1.44-1.51.36-.67.54-1.45.54-2.35s-.18-1.7-.54-2.35c-.36-.65-.84-1.14-1.44-1.48-.6-.34-1.28-.51-2.04-.51s-1.45.17-2.06.51c-.61.34-1.09.84-1.46,1.48s-.54,1.43-.54,2.35.18,1.68.54,2.35.85,1.17,1.46,1.51c.61.34,1.28.51,2.03.51Z"/>
        <path class="cls-2" d="M2175.46,734.49c-1.35,0-2.64-.16-3.88-.48-1.23-.32-2.22-.73-2.97-1.22l1.5-3.26c.74.43,1.61.79,2.6,1.07.99.28,1.96.43,2.92.43,1.06,0,1.81-.13,2.25-.38.44-.25.66-.61.66-1.06,0-.37-.17-.65-.51-.84-.34-.19-.79-.33-1.35-.42-.56-.1-1.18-.2-1.87-.29-.69-.1-1.37-.23-2.04-.41-.68-.18-1.3-.43-1.88-.75-.58-.32-1.04-.77-1.38-1.33s-.51-1.3-.51-2.2c0-1,.29-1.88.88-2.66.59-.77,1.42-1.37,2.5-1.8s2.38-.65,3.91-.65c1.1,0,2.2.12,3.31.37,1.11.25,2.04.58,2.81,1.01l-1.56,3.26c-.75-.43-1.5-.73-2.28-.91-.77-.18-1.51-.26-2.22-.26-1.06,0-1.82.14-2.29.41-.47.27-.71.63-.71,1.06,0,.39.18.69.53.9s.81.36,1.38.46c.57.1,1.19.2,1.88.29.69.1,1.36.23,2.03.41.67.18,1.29.42,1.87.75.58.32,1.04.77,1.38,1.33s.51,1.3.51,2.2c0,.96-.29,1.82-.88,2.57s-1.44,1.34-2.54,1.77c-1.11.43-2.45.65-4.04.65Z"/>
        <path class="cls-2" d="M2194.07,734.25v-21.77h4.58v21.77h-4.58Z"/>
        <path class="cls-2" d="M2210.41,734.49c-1.67,0-3.15-.35-4.45-1.06-1.3-.7-2.33-1.67-3.07-2.89-.75-1.22-1.12-2.62-1.12-4.18s.37-2.99,1.12-4.21c.74-1.22,1.77-2.18,3.07-2.88,1.3-.69,2.79-1.04,4.45-1.04s3.18.35,4.5,1.04c1.31.7,2.34,1.65,3.09,2.88.75,1.22,1.12,2.63,1.12,4.21s-.37,2.98-1.12,4.2c-.74,1.21-1.77,2.17-3.09,2.88s-2.81,1.06-4.5,1.06ZM2210.41,730.73c.78,0,1.47-.17,2.07-.51.6-.34,1.08-.85,1.44-1.51.36-.67.54-1.45.54-2.35s-.18-1.7-.54-2.35c-.36-.65-.84-1.14-1.44-1.48-.6-.34-1.28-.51-2.04-.51s-1.45.17-2.06.51c-.61.34-1.09.84-1.46,1.48s-.54,1.43-.54,2.35.18,1.68.54,2.35.85,1.17,1.46,1.51c.61.34,1.28.51,2.03.51Z"/>
        <path class="cls-2" d="M2227.48,734.49c-1.35,0-2.64-.16-3.88-.48-1.23-.32-2.22-.73-2.97-1.22l1.5-3.26c.74.43,1.61.79,2.6,1.07.99.28,1.96.43,2.92.43,1.06,0,1.81-.13,2.25-.38.44-.25.66-.61.66-1.06,0-.37-.17-.65-.51-.84-.34-.19-.79-.33-1.35-.42-.56-.1-1.18-.2-1.87-.29-.69-.1-1.37-.23-2.04-.41-.68-.18-1.3-.43-1.88-.75-.58-.32-1.04-.77-1.38-1.33s-.51-1.3-.51-2.2c0-1,.29-1.88.88-2.66.59-.77,1.42-1.37,2.5-1.8s2.38-.65,3.91-.65c1.1,0,2.2.12,3.31.37,1.11.25,2.04.58,2.81,1.01l-1.56,3.26c-.75-.43-1.5-.73-2.28-.91-.77-.18-1.51-.26-2.22-.26-1.06,0-1.82.14-2.29.41-.47.27-.71.63-.71,1.06,0,.39.18.69.53.9s.81.36,1.38.46c.57.1,1.19.2,1.88.29.69.1,1.36.23,2.03.41.67.18,1.29.42,1.87.75.58.32,1.04.77,1.38,1.33s.51,1.3.51,2.2c0,.96-.29,1.82-.88,2.57s-1.44,1.34-2.54,1.77c-1.11.43-2.45.65-4.04.65Z"/>
        <path class="cls-2" d="M2252.88,734.49c-1.49,0-2.83-.34-4.03-1.01s-2.14-1.62-2.82-2.83c-.69-1.21-1.03-2.64-1.03-4.28s.34-3.07,1.03-4.28c.69-1.21,1.63-2.16,2.82-2.83s2.54-1.01,4.03-1.01c1.33,0,2.5.29,3.5.88,1,.59,1.77,1.48,2.32,2.67.55,1.19.82,2.72.82,4.58s-.26,3.36-.79,4.58c-.53,1.21-1.29,2.11-2.28,2.68-.99.58-2.18.87-3.57.87ZM2253.64,730.73c.76,0,1.45-.17,2.06-.51.61-.34,1.09-.85,1.46-1.51s.54-1.45.54-2.35-.18-1.7-.54-2.35-.85-1.14-1.46-1.48c-.61-.34-1.29-.51-2.06-.51s-1.42.17-2.03.51c-.61.34-1.09.84-1.46,1.48s-.54,1.43-.54,2.35.18,1.68.54,2.35.85,1.17,1.46,1.51c.61.34,1.28.51,2.03.51ZM2257.82,734.25v-3.23l.09-4.7-.29-4.67v-9.18h4.58v21.77h-4.38Z"/>
        <path class="cls-2" d="M2274.27,734.49c-1.8,0-3.38-.35-4.73-1.06-1.35-.7-2.4-1.67-3.14-2.89-.75-1.22-1.12-2.62-1.12-4.18s.36-2.96,1.07-4.2c.71-1.23,1.71-2.2,3-2.89,1.28-.69,2.73-1.04,4.33-1.04s2.94.33,4.19,1c1.24.67,2.23,1.6,2.95,2.82s1.09,2.67,1.09,4.37c0,.18-.01.38-.03.6-.02.22-.04.44-.06.63h-12.84v-2.67h10.43l-1.79.79c.02-.82-.14-1.54-.47-2.14-.33-.61-.79-1.08-1.38-1.42-.59-.34-1.27-.51-2.06-.51s-1.47.17-2.07.51c-.6.34-1.06.82-1.4,1.44s-.5,1.35-.5,2.19v.7c0,.88.2,1.64.59,2.29.39.65.93,1.14,1.62,1.48.69.34,1.51.51,2.47.51.82,0,1.55-.13,2.19-.38.64-.25,1.22-.64,1.75-1.14l2.44,2.64c-.73.82-1.64,1.45-2.73,1.89-1.1.44-2.36.66-3.79.66Z"/>
        <path class="cls-2" d="M2284.97,734.25v-15.79h4.38v4.49l-.62-1.32c.47-1.12,1.22-1.96,2.26-2.54,1.04-.58,2.3-.87,3.79-.87v4.25c-.18-.04-.35-.07-.51-.09-.17-.02-.33-.03-.48-.03-1.29,0-2.32.36-3.09,1.09-.76.72-1.15,1.84-1.15,3.34v7.45h-4.58Z"/>
        <path class="cls-2" d="M2305.49,734.49c-1.8,0-3.38-.35-4.73-1.06-1.35-.7-2.4-1.67-3.14-2.89-.75-1.22-1.12-2.62-1.12-4.18s.36-2.96,1.07-4.2c.71-1.23,1.71-2.2,3-2.89,1.28-.69,2.73-1.04,4.33-1.04s2.94.33,4.19,1c1.24.67,2.23,1.6,2.95,2.82s1.09,2.67,1.09,4.37c0,.18-.01.38-.03.6-.02.22-.04.44-.06.63h-12.84v-2.67h10.43l-1.79.79c.02-.82-.14-1.54-.47-2.14-.33-.61-.79-1.08-1.38-1.42-.59-.34-1.27-.51-2.06-.51s-1.47.17-2.07.51c-.6.34-1.06.82-1.4,1.44s-.5,1.35-.5,2.19v.7c0,.88.2,1.64.59,2.29.39.65.93,1.14,1.62,1.48.69.34,1.51.51,2.47.51.82,0,1.55-.13,2.19-.38.64-.25,1.22-.64,1.75-1.14l2.44,2.64c-.73.82-1.64,1.45-2.73,1.89-1.1.44-2.36.66-3.79.66Z"/>
        <path class="cls-2" d="M2323.83,734.49c-1.71,0-3.22-.35-4.54-1.04s-2.36-1.66-3.12-2.89c-.75-1.23-1.13-2.63-1.13-4.2s.38-2.98,1.13-4.2c.75-1.21,1.79-2.17,3.12-2.88s2.84-1.06,4.54-1.06,3.12.35,4.36,1.04c1.24.7,2.14,1.68,2.69,2.95l-3.53,1.94c-.43-.74-.95-1.29-1.56-1.63-.61-.34-1.27-.51-2-.51-.76,0-1.46.17-2.09.51-.63.34-1.13.84-1.5,1.48s-.56,1.43-.56,2.35.19,1.71.56,2.36c.37.66.87,1.15,1.5,1.5.63.34,1.32.51,2.09.51.72,0,1.39-.17,2-.51.61-.34,1.13-.9,1.56-1.66l3.53,1.94c-.55,1.25-1.45,2.23-2.69,2.93s-2.7,1.06-4.36,1.06Z"/>
        <path class="cls-2" d="M2343.17,718.23c1.25,0,2.38.25,3.37.75s1.77,1.26,2.34,2.29c.57,1.03.85,2.34.85,3.95v9.04h-4.58v-8.33c0-1.27-.28-2.21-.84-2.82-.56-.61-1.35-.91-2.37-.91-.72,0-1.38.16-1.95.47-.58.31-1.03.77-1.35,1.38-.32.61-.49,1.41-.49,2.41v7.8h-4.58v-21.77h4.58v10.36l-1.03-1.32c.57-1.06,1.38-1.87,2.44-2.44,1.06-.57,2.26-.85,3.61-.85Z"/>
        <path class="cls-2" d="M2361.36,734.49c-1.67,0-3.15-.35-4.45-1.06-1.3-.7-2.33-1.67-3.07-2.89-.75-1.22-1.12-2.62-1.12-4.18s.37-2.99,1.12-4.21c.74-1.22,1.77-2.18,3.07-2.88,1.3-.69,2.79-1.04,4.45-1.04s3.18.35,4.5,1.04c1.31.7,2.34,1.65,3.09,2.88.75,1.22,1.12,2.63,1.12,4.21s-.37,2.98-1.12,4.2c-.74,1.21-1.77,2.17-3.09,2.88s-2.81,1.06-4.5,1.06ZM2361.36,730.73c.78,0,1.47-.17,2.07-.51.6-.34,1.08-.85,1.44-1.51.36-.67.54-1.45.54-2.35s-.18-1.7-.54-2.35c-.36-.65-.84-1.14-1.44-1.48-.6-.34-1.28-.51-2.04-.51s-1.45.17-2.06.51c-.61.34-1.09.84-1.46,1.48s-.54,1.43-.54,2.35.18,1.68.54,2.35.85,1.17,1.46,1.51c.61.34,1.28.51,2.03.51Z"/>
        <path class="cls-2" d="M2378.43,734.49c-1.35,0-2.64-.16-3.88-.48-1.23-.32-2.22-.73-2.97-1.22l1.5-3.26c.74.43,1.61.79,2.6,1.07.99.28,1.96.43,2.92.43,1.06,0,1.81-.13,2.25-.38.44-.25.66-.61.66-1.06,0-.37-.17-.65-.51-.84-.34-.19-.79-.33-1.35-.42-.56-.1-1.18-.2-1.87-.29-.69-.1-1.37-.23-2.04-.41-.68-.18-1.3-.43-1.88-.75-.58-.32-1.04-.77-1.38-1.33s-.51-1.3-.51-2.2c0-1,.29-1.88.88-2.66.59-.77,1.42-1.37,2.5-1.8s2.38-.65,3.91-.65c1.1,0,2.2.12,3.31.37,1.11.25,2.04.58,2.81,1.01l-1.56,3.26c-.75-.43-1.5-.73-2.28-.91-.77-.18-1.51-.26-2.22-.26-1.06,0-1.82.14-2.29.41-.47.27-.71.63-.71,1.06,0,.39.18.69.53.9s.81.36,1.38.46c.57.1,1.19.2,1.88.29.69.1,1.36.23,2.03.41.67.18,1.29.42,1.87.75.58.32,1.04.77,1.38,1.33s.51,1.3.51,2.2c0,.96-.29,1.82-.88,2.57s-1.44,1.34-2.54,1.77c-1.11.43-2.45.65-4.04.65Z"/>
        <path class="cls-2" d="M2397.04,734.25v-15.79h4.38v4.49l-.62-1.32c.47-1.12,1.22-1.96,2.26-2.54,1.04-.58,2.3-.87,3.79-.87v4.25c-.18-.04-.35-.07-.51-.09-.17-.02-.33-.03-.48-.03-1.29,0-2.32.36-3.09,1.09-.76.72-1.15,1.84-1.15,3.34v7.45h-4.58Z"/>
        <path class="cls-2" d="M2417.55,734.49c-1.8,0-3.38-.35-4.73-1.06-1.35-.7-2.4-1.67-3.14-2.89-.75-1.22-1.12-2.62-1.12-4.18s.36-2.96,1.07-4.2c.71-1.23,1.71-2.2,3-2.89,1.28-.69,2.73-1.04,4.33-1.04s2.94.33,4.19,1c1.24.67,2.23,1.6,2.95,2.82s1.09,2.67,1.09,4.37c0,.18-.01.38-.03.6-.02.22-.04.44-.06.63h-12.84v-2.67h10.43l-1.79.79c.02-.82-.14-1.54-.47-2.14-.33-.61-.79-1.08-1.38-1.42-.59-.34-1.27-.51-2.06-.51s-1.47.17-2.07.51c-.6.34-1.06.82-1.4,1.44s-.5,1.35-.5,2.19v.7c0,.88.2,1.64.59,2.29.39.65.93,1.14,1.62,1.48.69.34,1.51.51,2.47.51.82,0,1.55-.13,2.19-.38.64-.25,1.22-.64,1.75-1.14l2.44,2.64c-.73.82-1.64,1.45-2.73,1.89-1.1.44-2.36.66-3.79.66Z"/>
        <path class="cls-2" d="M2433.57,734.49c-1.35,0-2.64-.16-3.88-.48-1.23-.32-2.22-.73-2.97-1.22l1.5-3.26c.74.43,1.61.79,2.6,1.07.99.28,1.96.43,2.92.43,1.06,0,1.81-.13,2.25-.38.44-.25.66-.61.66-1.06,0-.37-.17-.65-.51-.84-.34-.19-.79-.33-1.35-.42-.56-.1-1.18-.2-1.87-.29-.69-.1-1.37-.23-2.04-.41-.68-.18-1.3-.43-1.88-.75-.58-.32-1.04-.77-1.38-1.33s-.51-1.3-.51-2.2c0-1,.29-1.88.88-2.66.59-.77,1.42-1.37,2.5-1.8s2.38-.65,3.91-.65c1.1,0,2.2.12,3.31.37,1.11.25,2.04.58,2.81,1.01l-1.56,3.26c-.75-.43-1.5-.73-2.28-.91-.77-.18-1.51-.26-2.22-.26-1.06,0-1.82.14-2.29.41-.47.27-.71.63-.71,1.06,0,.39.18.69.53.9s.81.36,1.38.46c.57.1,1.19.2,1.88.29.69.1,1.36.23,2.03.41.67.18,1.29.42,1.87.75.58.32,1.04.77,1.38,1.33s.51,1.3.51,2.2c0,.96-.29,1.82-.88,2.57s-1.44,1.34-2.54,1.77c-1.11.43-2.45.65-4.04.65Z"/>
        <path class="cls-2" d="M2451.71,734.49c-1.8,0-3.38-.35-4.73-1.06-1.35-.7-2.4-1.67-3.14-2.89-.75-1.22-1.12-2.62-1.12-4.18s.36-2.96,1.07-4.2c.71-1.23,1.71-2.2,3-2.89,1.28-.69,2.73-1.04,4.33-1.04s2.94.33,4.19,1c1.24.67,2.23,1.6,2.95,2.82s1.09,2.67,1.09,4.37c0,.18-.01.38-.03.6-.02.22-.04.44-.06.63h-12.84v-2.67h10.43l-1.79.79c.02-.82-.14-1.54-.47-2.14-.33-.61-.79-1.08-1.38-1.42-.59-.34-1.27-.51-2.06-.51s-1.47.17-2.07.51c-.6.34-1.06.82-1.4,1.44s-.5,1.35-.5,2.19v.7c0,.88.2,1.64.59,2.29.39.65.93,1.14,1.62,1.48.69.34,1.51.51,2.47.51.82,0,1.55-.13,2.19-.38.64-.25,1.22-.64,1.75-1.14l2.44,2.64c-.73.82-1.64,1.45-2.73,1.89-1.1.44-2.36.66-3.79.66Z"/>
        <path class="cls-2" d="M2462.4,734.25v-15.79h4.38v4.49l-.62-1.32c.47-1.12,1.22-1.96,2.26-2.54,1.04-.58,2.3-.87,3.79-.87v4.25c-.18-.04-.35-.07-.51-.09-.17-.02-.33-.03-.48-.03-1.29,0-2.32.36-3.09,1.09-.76.72-1.15,1.84-1.15,3.34v7.45h-4.58Z"/>
        <path class="cls-2" d="M2479.39,734.25l-6.64-15.79h4.7l5.53,13.59h-2.35l5.76-13.59h4.38l-6.67,15.79h-4.7Z"/>
        <path class="cls-2" d="M2497.53,734.49c-1.21,0-2.26-.21-3.14-.63-.88-.42-1.56-.99-2.04-1.72-.48-.72-.72-1.54-.72-2.44s.23-1.74.69-2.45c.46-.71,1.19-1.27,2.19-1.66,1-.39,2.31-.59,3.94-.59h4.17v2.64h-3.7c-1.08,0-1.82.18-2.22.53-.4.35-.6.79-.6,1.32,0,.59.23,1.05.69,1.39.46.34,1.08.51,1.87.51s1.48-.18,2.1-.53c.62-.35,1.05-.89,1.31-1.61l.71,2.14c-.33.98-.94,1.74-1.82,2.27s-2.02.81-3.41.81ZM2502.35,734.25v-3.08l-.29-.67v-5.52c0-.98-.3-1.74-.9-2.29s-1.51-.82-2.75-.82c-.84,0-1.67.13-2.48.4-.81.26-1.51.62-2.1,1.07l-1.62-3.2c.86-.63,1.9-1.1,3.12-1.42,1.21-.32,2.45-.48,3.7-.48,2.41,0,4.28.57,5.61,1.7,1.33,1.13,2,2.91,2,5.31v9.01h-4.29Z"/>
        <path class="cls-2" d="M2517.57,734.49c-1.49,0-2.83-.34-4.03-1.01s-2.14-1.62-2.82-2.83c-.69-1.21-1.03-2.64-1.03-4.28s.34-3.07,1.03-4.28c.69-1.21,1.63-2.16,2.82-2.83s2.54-1.01,4.03-1.01c1.33,0,2.5.29,3.5.88,1,.59,1.77,1.48,2.32,2.67.55,1.19.82,2.72.82,4.58s-.26,3.36-.79,4.58c-.53,1.21-1.29,2.11-2.28,2.68-.99.58-2.18.87-3.57.87ZM2518.33,730.73c.76,0,1.45-.17,2.06-.51.61-.34,1.09-.85,1.46-1.51s.54-1.45.54-2.35-.18-1.7-.54-2.35-.85-1.14-1.46-1.48c-.61-.34-1.29-.51-2.06-.51s-1.42.17-2.03.51c-.61.34-1.09.84-1.46,1.48s-.54,1.43-.54,2.35.18,1.68.54,2.35.85,1.17,1.46,1.51c.61.34,1.28.51,2.03.51ZM2522.51,734.25v-3.23l.09-4.7-.29-4.67v-9.18h4.58v21.77h-4.38Z"/>
        <path class="cls-2" d="M2538.61,734.49c-1.67,0-3.15-.35-4.45-1.06-1.3-.7-2.33-1.67-3.07-2.89-.75-1.22-1.12-2.62-1.12-4.18s.37-2.99,1.12-4.21c.74-1.22,1.77-2.18,3.07-2.88,1.3-.69,2.79-1.04,4.45-1.04s3.18.35,4.5,1.04c1.31.7,2.34,1.65,3.09,2.88.75,1.22,1.12,2.63,1.12,4.21s-.37,2.98-1.12,4.2c-.74,1.21-1.77,2.17-3.09,2.88s-2.81,1.06-4.5,1.06ZM2538.61,730.73c.78,0,1.47-.17,2.07-.51.6-.34,1.08-.85,1.44-1.51.36-.67.54-1.45.54-2.35s-.18-1.7-.54-2.35c-.36-.65-.84-1.14-1.44-1.48-.6-.34-1.28-.51-2.04-.51s-1.45.17-2.06.51c-.61.34-1.09.84-1.46,1.48s-.54,1.43-.54,2.35.18,1.68.54,2.35.85,1.17,1.46,1.51c.61.34,1.28.51,2.03.51Z"/>
        <path class="cls-2" d="M2555.69,734.49c-1.35,0-2.64-.16-3.88-.48-1.23-.32-2.22-.73-2.97-1.22l1.5-3.26c.74.43,1.61.79,2.6,1.07.99.28,1.96.43,2.92.43,1.06,0,1.81-.13,2.25-.38.44-.25.66-.61.66-1.06,0-.37-.17-.65-.51-.84-.34-.19-.79-.33-1.35-.42-.56-.1-1.18-.2-1.87-.29-.69-.1-1.37-.23-2.04-.41-.68-.18-1.3-.43-1.88-.75-.58-.32-1.04-.77-1.38-1.33s-.51-1.3-.51-2.2c0-1,.29-1.88.88-2.66.59-.77,1.42-1.37,2.5-1.8s2.38-.65,3.91-.65c1.1,0,2.2.12,3.31.37,1.11.25,2.04.58,2.81,1.01l-1.56,3.26c-.75-.43-1.5-.73-2.28-.91-.77-.18-1.51-.26-2.22-.26-1.06,0-1.82.14-2.29.41-.47.27-.71.63-.71,1.06,0,.39.18.69.53.9s.81.36,1.38.46c.57.1,1.19.2,1.88.29.69.1,1.36.23,2.03.41.67.18,1.29.42,1.87.75.58.32,1.04.77,1.38,1.33s.51,1.3.51,2.2c0,.96-.29,1.82-.88,2.57s-1.44,1.34-2.54,1.77c-1.11.43-2.45.65-4.04.65Z"/>
        <path class="cls-2" d="M2567.71,734.49c-.78,0-1.46-.27-2.01-.81s-.84-1.22-.84-2.04.28-1.56.84-2.08c.56-.53,1.23-.79,2.01-.79s1.48.26,2.03.79c.55.53.82,1.22.82,2.08s-.27,1.5-.82,2.04-1.22.81-2.03.81Z"/>
      </g>
    </g>
  </g>
</svg>